<svg xmlns="http://www.w3.org/2000/svg" width="100" height="13" viewBox="0 0 100 13">
  <defs>
    <style>
      .cls-1 {
        fill-rule: evenodd;
        opacity: 0.6;
      }
    </style>
  </defs>
  <path id="devider.svg" class="cls-1" d="M271,1723v-1h40v1H271Zm-60,0v-1h40v1H211Zm44.317-5.3a18.328,18.328,0,0,0,2.741-.83,19.087,19.087,0,0,1,2.87-.86L261,1716l0.072,0.01a19.075,19.075,0,0,1,2.869.86,18.375,18.375,0,0,0,2.742.83l0.319,0.05v0.31a15.049,15.049,0,0,1-1.039,6.03,9.387,9.387,0,0,1-4.789,4.82L261,1729l-0.174-.09a9.387,9.387,0,0,1-4.789-4.82,15.049,15.049,0,0,1-1.039-6.03v-0.31l0.319-.05h0Z" transform="translate(-211 -1716)"/>
</svg>
