<svg xmlns="http://www.w3.org/2000/svg" width="52.906" height="36.12" viewBox="0 0 52.906 36.12">
  <defs>
    <style>
      .cls-1 {
        fill: #484848;
        fill-rule: evenodd;
      }
    </style>
  </defs>
  <path id="gun.svg" class="cls-1" d="M124.954,1893.85H78.177a0.733,0.733,0,0,0-.5.2,0.711,0.711,0,0,0-.209.5v6.16a0.721,0.721,0,0,0,.206.5,0.744,0.744,0,0,0,.5.2h47.486l0-6.86a0.725,0.725,0,0,0-.2-0.5h0a0.683,0.683,0,0,0-.5-0.2h0Zm-46.777-1.42h46.777a2.133,2.133,0,0,1,1.5.62h0a2.133,2.133,0,0,1,.623,1.5l0,8.28h-48.9a2.122,2.122,0,0,1-2.124-2.12v-6.16A2.125,2.125,0,0,1,78.177,1892.43Zm3.92,8.98h44.98v4.09a2.486,2.486,0,0,1-2.477,2.48H83.865a2.465,2.465,0,0,1-1.748-.73h0a2.478,2.478,0,0,1-.727-1.75v-4.09H82.1Zm43.563,1.42H82.806v2.67a1.063,1.063,0,0,0,.309.75h0a1.063,1.063,0,0,0,.748.31H124.6a1.062,1.062,0,0,0,1.06-1.06v-2.67Zm-19.485-9.9,2.714,8.99-1.357.41-2.714-8.99Zm4.6,0,2.715,8.99-1.356.41-2.716-8.99Zm4.6,0,2.715,8.99-1.357.41-2.714-8.99Zm4.6,0,2.714,8.99-1.357.41-2.714-8.99ZM107.9,1907.41a7.923,7.923,0,0,1-1.277,3.08,8.527,8.527,0,0,1-2.145,2.04l-0.809-1.16a7.16,7.16,0,0,0,1.8-1.7,6.579,6.579,0,0,0,1.045-2.54Zm-7.6-.85H110l2.631,9.05h-7.377a5.689,5.689,0,0,1-5.661-5.66v-3.39H100.3Zm8.64,1.42H101.01v1.97a4.265,4.265,0,0,0,4.244,4.24h5.495Zm0.529-1.42h14.475l4.823,16.58a4.224,4.224,0,0,1-4.074,5.43h-6.578a4.2,4.2,0,0,1-4.075-3.06l-5.513-18.95h0.942Zm13.417,1.42H110.413l4.986,17.14a2.77,2.77,0,0,0,2.718,2.03H124.7a2.787,2.787,0,0,0,1.272-.28,2.934,2.934,0,0,0,1.526-2.03,2.854,2.854,0,0,0-.08-1.31Zm-1.881,13.05a1.545,1.545,0,1,1-1.544,1.54A1.543,1.543,0,0,1,121.007,1921.03Z" transform="translate(-76.063 -1892.44)"/>
</svg>
