<svg xmlns="http://www.w3.org/2000/svg" width="53" height="43" viewBox="0 0 53 43">
  <defs>
    <style>
      .cls-1 {
        fill: #484848;
        fill-rule: evenodd;
      }
    </style>
  </defs>
  <path id="hazard.svg" class="cls-1" d="M79.567,2623.54l22.922-35.9a3.424,3.424,0,0,1,1.286-1.2,3.673,3.673,0,0,1,3.449,0,3.431,3.431,0,0,1,1.286,1.2l22.923,35.9a3.557,3.557,0,0,1,.569,1.79,3.607,3.607,0,0,1-1.751,3.17,3.57,3.57,0,0,1-1.83.49H82.578a3.565,3.565,0,0,1-1.829-.49A3.609,3.609,0,0,1,79,2625.33a3.556,3.556,0,0,1,.57-1.79h0Zm24.128-35.15-22.92,35.91a2.127,2.127,0,0,0-.353,1.08,2.082,2.082,0,0,0,.271,1.09,2.157,2.157,0,0,0,.784.82,2.228,2.228,0,0,0,1.1.28h45.843a2.227,2.227,0,0,0,1.1-.28,2.157,2.157,0,0,0,.784-0.82,2.081,2.081,0,0,0,.27-1.09,2.115,2.115,0,0,0-.352-1.08L107.3,2588.39a2.019,2.019,0,0,0-1.805-.96A2.016,2.016,0,0,0,103.7,2588.39Zm11.2,22.05-18.083,10.44-0.709-1.22,18.084-10.44Zm-18.083-1.22,18.083,10.44-0.709,1.22L96.1,2610.44Zm17.729,1.89a1.275,1.275,0,1,0-1.275-1.28A1.284,1.284,0,0,0,114.541,2611.11Zm0,10.44a1.275,1.275,0,1,0-1.276-1.28A1.277,1.277,0,0,0,114.541,2621.55Zm-18.083,0a1.275,1.275,0,1,0-1.276-1.28A1.277,1.277,0,0,0,96.458,2621.55Zm0-10.44a1.275,1.275,0,1,0-1.275-1.28A1.283,1.283,0,0,0,96.457,2611.11Zm9.042-6.76a5.485,5.485,0,0,1,5.492,5.49v0.01l-1.13.64a1.952,1.952,0,0,0,.12-0.68,1.992,1.992,0,1,0-2.364,1.96l-2.118,1.2-2.119-1.2a1.993,1.993,0,1,0-2.368-1.96,1.975,1.975,0,0,0,.119.68l-1.124-.64v-0.01A5.486,5.486,0,0,1,105.5,2604.35Z" transform="translate(-79 -2586)"/>
</svg>
