<svg xmlns="http://www.w3.org/2000/svg" width="52.812" height="46.79" viewBox="0 0 52.812 46.79">
  <defs>
    <style>
      .cls-1 {
        fill: #484848;
        fill-rule: evenodd;
      }
    </style>
  </defs>
  <path id="hotel.svg" class="cls-1" d="M92.875,1782.11h19.249a3.1,3.1,0,0,1,3.087,3.09v43.69H89.788V1785.2a3.1,3.1,0,0,1,3.088-3.09h0Zm19.249,1.42H92.875a1.638,1.638,0,0,0-1.18.49,1.661,1.661,0,0,0-.491,1.18v42.27h22.59V1785.2a1.659,1.659,0,0,0-.491-1.18A1.638,1.638,0,0,0,112.124,1783.53Zm-16.907,4.15H101.5v7H94.508v-7h0.709Zm4.865,1.42H95.925v4.16h4.157v-4.16Zm4.108-1.42h6.283v7h-6.992v-7h0.709Zm4.865,1.42H104.9v4.16h4.157v-4.16Zm-13.838,7.56H101.5v6.99H94.508v-6.99h0.709Zm4.865,1.41H95.925v4.16h4.157v-4.16Zm4.108-1.41h6.283v6.99h-6.992v-6.99h0.709Zm4.865,1.41H104.9v4.16h4.157v-4.16Zm-13.838,7.56H101.5v6.99H94.508v-6.99h0.709Zm4.865,1.42H95.925v4.15h4.157v-4.15Zm4.108-1.42h6.283v6.99h-6.992v-6.99h0.709Zm4.865,1.42H104.9v4.15h4.157v-4.15Zm-11.033,8.69h9.663v13.15H97.314v-13.15h0.708Zm8.246,1.41H98.731v10.32h7.537v-10.32Zm-27.086-23.3H91.2v35.04H76.1v-31.96a3.083,3.083,0,0,1,3.087-3.08h0Zm10.605,1.41H79.182a1.693,1.693,0,0,0-1.67,1.67v30.54H89.788v-32.21Zm-8.264,4.16h6.283v6.99H80.815v-6.99h0.709Zm4.865,1.42H82.233V1805h4.156v-4.16Zm-4.865,7.55h6.283v7H80.815v-7h0.709Zm4.865,1.42H82.233v4.16h4.156v-4.16Zm-4.865,7.56h6.283v6.99H80.815v-6.99h0.709Zm4.865,1.41H82.233v4.16h4.156v-4.16Zm39.428-23.52H115.211v32.21h12.276v-30.54a1.692,1.692,0,0,0-1.67-1.67h0Zm-11.315-1.41h11.315a3.083,3.083,0,0,1,3.088,3.08v31.96H113.794v-35.04H114.5Zm8.264,6.99H118.61V1805h4.156v-4.16h0Zm-4.865-1.42h6.283v6.99h-6.992v-6.99H117.9Zm4.865,10.39H118.61v4.16h4.156v-4.16h0Zm-4.865-1.42h6.283v7h-6.992v-7H117.9Zm4.865,10.39H118.61v4.16h4.156v-4.16h0Zm-4.865-1.41h6.283v6.99h-6.992v-6.99H117.9Z" transform="translate(-76.094 -1782.09)"/>
</svg>
