<svg xmlns="http://www.w3.org/2000/svg" width="53.125" height="41.25" viewBox="0 0 53.125 41.25">
  <defs>
    <style>
      .cls-1 {
        fill: #484848;
        fill-rule: evenodd;
      }
    </style>
  </defs>
  <path id="life.svg" class="cls-1" d="M89.484,2382.89h23.844l5.9,36.72H82.985q2.953-18.36,5.9-36.72h0.6Zm22.641,1.41H90.086l-5.441,33.89h32.923Zm-21.294,22.88-1.272,7.92-1.4-.22,1.271-7.93Zm3.147-19.6-2.54,15.82-1.4-.22,2.54-15.82Zm38.1,32.03H78.923v-1.42h53.154v1.42Zm-15.083-22.72h7.433l3.648,22.72h-8.849L119,2418.19h7.419l-3.193-19.89h-6Zm15.083,27.22H78.923v-1.41h53.154v1.41Z" transform="translate(-78.938 -2382.88)"/>
</svg>
