<svg xmlns="http://www.w3.org/2000/svg" width="49.375" height="50.94" viewBox="0 0 49.375 50.94">
  <defs>
    <style>
      .cls-1 {
        fill: #484848;
        fill-rule: evenodd;
      }
    </style>
  </defs>
  <path id="medical.svg" class="cls-1" d="M88.159,2184.89h4.563c-0.016.24-.024,0.47-0.024,0.71s0.009,0.48.024,0.71H88.159a1.274,1.274,0,0,0-.9.37,1.3,1.3,0,0,0-.374.91v37.95h33.233v-37.95a1.312,1.312,0,0,0-.375-0.91,1.269,1.269,0,0,0-.9-0.37h-4.561c0.015-.23.024-0.47,0.024-0.71s-0.009-.47-0.024-0.71h4.561a2.719,2.719,0,0,1,1.9.79,2.684,2.684,0,0,1,.793,1.91v39.37H85.466v-39.37a2.669,2.669,0,0,1,.79-1.9l0-.01a2.713,2.713,0,0,1,1.9-.79h0Zm2.382,17.84H89.832v8.09H98v-8.09H90.541Zm6.041,1.42H91.248v5.26h5.333v-5.26h0Zm-6.041-11.5H89.832v8.1H98v-5.85a10.786,10.786,0,0,1-2.681-2.25H90.541Zm6.041,1.42H91.248v5.26h5.333v-5.26h0Zm15.1-1.42A10.809,10.809,0,0,1,109,2194.9v5.85h8.167v-8.1h-5.486Zm4.069,1.42h-5.333v5.26h5.333v-5.26h0Zm-8.168,1.53a9.8,9.8,0,0,1-1.417.47v3.26h-5.333v-3.26a9.844,9.844,0,0,1-1.417-.47v5.15h8.167v-5.15h0Zm-7.458,7.13H99.416v8.09h8.167v-8.09h-7.458Zm6.041,1.42h-5.333v5.26h5.333v-5.26h0Zm3.543-1.42H109v8.09h8.167v-8.09h-7.459Zm6.042,1.42h-5.333v5.26h5.333v-5.26Zm-1.378,22.81H91.84v-12.03a2.134,2.134,0,0,1,.623-1.5h0a2.134,2.134,0,0,1,1.5-.62h18.991a2.125,2.125,0,0,1,2.126,2.12v12.03h-0.709Zm-10.2-12.73v11.31h9.5v-10.61a0.719,0.719,0,0,0-.208-0.5,0.69,0.69,0,0,0-.5-0.2h-8.787Zm-1.417,11.31v-11.31H93.965a0.692,0.692,0,0,0-.5.2h0a0.725,0.725,0,0,0-.205.5v10.61h9.495Zm-3.021-41.48h7.538a1.541,1.541,0,0,1,1.537,1.54h0a1.541,1.541,0,0,1-1.537,1.54H99.731a1.541,1.541,0,0,1-1.537-1.54h0A1.541,1.541,0,0,1,99.731,2184.06Zm2.3,5.14V2182a1.469,1.469,0,0,1,1.466-1.46h0a1.47,1.47,0,0,1,1.468,1.46v7.2a1.47,1.47,0,0,1-1.468,1.46h0A1.469,1.469,0,0,1,102.033,2189.2Zm1.466-13.16a9.561,9.561,0,1,1-6.76,2.8,9.533,9.533,0,0,1,6.76-2.8h0Zm5.806,3.76a8.211,8.211,0,1,0,2.4,5.8A8.172,8.172,0,0,0,109.305,2179.8Zm-30.48,45.74h49.35v1.42H78.825v-1.42Z" transform="translate(-78.813 -2176.03)"/>
</svg>
