<svg xmlns="http://www.w3.org/2000/svg" width="29" height="29" viewBox="0 0 29 29">
  <defs>
    <style>
      .cls-1 {
        fill: #484848;
        fill-rule: evenodd;
      }
    </style>
  </defs>
  <path id="phone_icon.svg" class="cls-1" d="M138.423,202.345a11.907,11.907,0,0,0,1.061,4.224l0.8,2.058c0.1,0.239.214,0.481,0.336,0.723,0.137,0.269.266,0.5,0.388,0.716l0.122,0.207c0.334,0.528.638,0.992,1,1.517,0.214,0.3.619,0.829,0.994,1.3,0.273,0.34.529,0.644,0.679,0.8l0.811,0.875,0.126,0.15,1.985,1.941c0.4,0.368.825,0.732,1.272,1.092s0.908,0.708,1.358,1.034l0.328,0.23c0.393,0.264.794,0.538,1.179,0.744l1.077,0.564c0.169,0.086.37,0.173,0.573,0.261l0.245,0.107,3.334,1.236a7.958,7.958,0,0,0,2.707.451,6.339,6.339,0,0,0,2.633-.646c0.223-.106.462-0.233,0.71-0.376s0.468-.277.687-0.423c0.092-.061.189-0.134,0.288-0.209l0.084-.061,0.394-.336a1.925,1.925,0,0,0,.261-0.3,2.034,2.034,0,0,0,.2-0.346,5.641,5.641,0,0,0,.219-0.644c0.062-.223.117-0.46,0.163-0.7l0.064-.327a4.372,4.372,0,0,0,.076-0.611c0-.119.034-0.188,0.022-0.2a5.839,5.839,0,0,0-1.291-.8c-0.246-.129-0.478-0.249-0.658-0.357L161.5,215.6c-0.489-.268-1.046-0.571-1.428-0.816-0.134-.087-0.287-0.2-0.442-0.307a3.546,3.546,0,0,0-.823-0.492,0.327,0.327,0,0,0-.169-0.017,0.482,0.482,0,0,0-.188.106l-0.528.482-0.156.163a3.115,3.115,0,0,0-.225.25l-1.025,1.275a1.9,1.9,0,0,1-.188.2l-0.07.072a3.327,3.327,0,0,1-.711.657,1.644,1.644,0,0,1-.884.318,1.846,1.846,0,0,1-.461-0.063,3.18,3.18,0,0,1-.326-0.112,6.875,6.875,0,0,1-.977-0.517l-0.794-.46-0.42-.252c-0.524-.323-0.787-0.507-1.14-0.755l-0.443-.311a9.878,9.878,0,0,1-.843-0.667c-0.158-.134-0.313-0.267-0.452-0.375a10.294,10.294,0,0,1-.88-0.81c-0.386-.389-0.788-0.823-1.009-1.087a11.8,11.8,0,0,1-1.138-1.46c-0.3-.422-0.592-0.842-0.862-1.3s-0.53-.888-0.788-1.338a3.376,3.376,0,0,1-.627-1.633,2.108,2.108,0,0,1,.813-1.451l0.111-.112a2.07,2.07,0,0,1,.151-0.144l0.3-.255a1.96,1.96,0,0,1,.161-0.138l0.416-.319a7.539,7.539,0,0,0,.662-0.539c0.106-.106.191-0.185,0.274-0.262,0.113-.1.227-0.209,0.3-0.283l0.022-.032a1.91,1.91,0,0,1,.129-0.147,0.747,0.747,0,0,0,.2-0.3,0.282,0.282,0,0,0-.012-0.177,3.069,3.069,0,0,0-.337-0.6l-0.173-.26a13.523,13.523,0,0,1-.735-1.19c-0.557-.983-1.095-1.975-1.637-2.966a5.206,5.206,0,0,0-.392-0.644,0.752,0.752,0,0,0-.1-0.123h-0.073a4.756,4.756,0,0,0-.692.068l-0.258.035a3.531,3.531,0,0,0-.392.081c-0.166.043-.31,0.086-0.443,0.125a3.635,3.635,0,0,0-.989.4,3.248,3.248,0,0,0-.717.759l-0.151.213-0.385.595c-0.053.086-.1,0.171-0.175,0.3-0.041.062-.088,0.16-0.125,0.228s-0.23.536-.265,0.575-0.043.1-.069,0.168c-0.008.024-.063,0.181-0.071,0.187-0.037.1-.072,0.2-0.116,0.347a2.751,2.751,0,0,0-.078.269c-0.064.258-.119,0.51-0.158,0.771a5.377,5.377,0,0,0-.06.793h0Zm-0.265,4.73a13.086,13.086,0,0,1-1.16-4.73,6.619,6.619,0,0,1,.076-1c0.046-.3.111-0.6,0.186-0.9l0.091-.318c0.042-.152.1-0.3,0.153-0.449l0.063-.177c0.037-.1.074-0.184,0.114-0.273a9.489,9.489,0,0,1,.432-0.891c0.054-.1.134-0.232,0.213-0.363a6.337,6.337,0,0,1,.608-0.914A4.438,4.438,0,0,1,140,195.964a4.775,4.775,0,0,1,1.379-.593c0.167-.049.343-0.1,0.5-0.141a5.1,5.1,0,0,1,.55-0.109l0.244-.036a5.806,5.806,0,0,1,.9-0.084,1.486,1.486,0,0,1,.8.2l0,0a1.749,1.749,0,0,1,.514.487,6.489,6.489,0,0,1,.5.818c0.478,0.86.946,1.728,1.422,2.591,0.069,0.119.143,0.242,0.208,0.362a12.5,12.5,0,0,0,.676,1.1l0.179,0.264a4.173,4.173,0,0,1,.482.88,1.666,1.666,0,0,1,.05,1.07,2.143,2.143,0,0,1-.563.909l-0.113.138c-0.147.156-.262,0.261-0.377,0.367l-0.231.217a7.811,7.811,0,0,1-.813.672c-0.116.084-.229,0.17-0.353,0.27-0.192.192-.434,0.372-0.642,0.577a1.863,1.863,0,0,0-.384.437,2.655,2.655,0,0,0,.42.9c0.117,0.2.683,1.25,0.8,1.35,0.243,0.408.522,0.8,0.8,1.2l0.095,0.134,0.659,0.857,0.314,0.383c0.188,0.225.553,0.616,0.924,0.989a9.333,9.333,0,0,0,.741.687c0.18,0.141.342,0.279,0.507,0.419a8.837,8.837,0,0,0,.727.58l0.453,0.315c0.317,0.222.552,0.388,1.068,0.7l0.4,0.242,0.8,0.465a5.77,5.77,0,0,0,.779.416c0.057,0.021.115,0.044,0.16,0.057a0.51,0.51,0,0,0,.1.013c0.015,0,.024-0.031.088-0.074a1.8,1.8,0,0,0,.382-0.344,1.922,1.922,0,0,1,.2-0.224c0.367-.38.743-0.913,1.081-1.334a3.954,3.954,0,0,1,.329-0.366c0.251-.264.526-0.506,0.8-0.749a1.879,1.879,0,0,1,.766-0.4,1.666,1.666,0,0,1,.965.06,4.66,4.66,0,0,1,1.185.68c0.117,0.085.236,0.17,0.38,0.262,0.369,0.236.887,0.519,1.342,0.767,0.4,0.217.8,0.434,1.2,0.655,0.161,0.1.371,0.207,0.594,0.323a6.258,6.258,0,0,1,1.715,1.131,1.7,1.7,0,0,1,.317,1.169,5.631,5.631,0,0,1-.1.819l-0.063.344c-0.052.265-.114,0.538-0.192,0.812a6.448,6.448,0,0,1-.281.811,3.336,3.336,0,0,1-.343.612,3.451,3.451,0,0,1-.462.533c-0.195.166-.38,0.331-0.585,0.484-0.11.084-.217,0.167-0.359,0.26-0.254.17-.51,0.329-0.765,0.474s-0.514.281-.805,0.42a7.761,7.761,0,0,1-3.217.784,9.435,9.435,0,0,1-3.209-.528,30.606,30.606,0,0,1-3.673-1.382c-0.209-.091-0.414-0.18-0.653-0.3-0.066-.026-1.084-0.564-1.094-0.573a14.729,14.729,0,0,1-1.313-.825l-0.359-.252c-0.489-.354-0.965-0.713-1.418-1.078s-0.908-.753-1.359-1.169a27.7,27.7,0,0,1-2-1.958,1.806,1.806,0,0,1-.143-0.16l-0.032-.04-0.79-.855c-0.195-.2-0.476-0.531-0.762-0.888-0.4-.5-0.823-1.055-1.039-1.353-0.415-.629-0.83-1.2-1.2-1.853-0.158-.278-0.3-0.541-0.422-0.777-0.135-.263-0.264-0.538-0.382-0.823C138.705,208.472,138.421,207.777,138.158,207.075Z" transform="translate(-137 -195)"/>
</svg>
