<svg xmlns="http://www.w3.org/2000/svg" width="45.188" height="40.25" viewBox="0 0 45.188 40.25">
  <defs>
    <style>
      .cls-1 {
        fill: #484848;
        fill-rule: evenodd;
      }
    </style>
  </defs>
  <path id="school.svg" class="cls-1" d="M102.5,2084.97l-16.868,8.85h33.737l-16.869-8.85h0Zm-20.064,8.93,20.064-10.53q11.307,5.925,22.606,11.87H79.895Zm2.022,3.15h36.085v1.42H84.457v-1.42Zm15.65,0H105.6v19.79H99.4v-19.79h0.709Zm4.077,1.42h-3.368v16.96h3.368v-16.96Zm-19.727,16.96h36.085v1.41H84.457v-1.41Zm4.084-18.38h5.493v19.79h-6.2v-19.79h0.709Zm4.076,1.42H89.25v16.96h3.367v-16.96Zm19.057-1.42h5.493v19.79h-6.2v-19.79h0.709Zm4.075,1.42h-3.367v16.96h3.367v-16.96Zm-32.986,20.35h39.473v1.42H82.763v-1.42Zm-1.595,3.39h42.664v1.42H81.168v-1.42Z" transform="translate(-79.906 -2083.38)"/>
</svg>
