<svg xmlns="http://www.w3.org/2000/svg" width="43" height="44" viewBox="0 0 43 44">
  <defs>
    <style>
      .cls-1 {
        fill: #484848;
        fill-rule: evenodd;
      }
    </style>
  </defs>
  <path id="sport.svg" class="cls-1" d="M122.274,2329.01H80.012v-18.67h0.713a5.117,5.117,0,0,0,2.609-.85,8.3,8.3,0,0,1,8.632,0,4.428,4.428,0,0,0,5.218,0,8.3,8.3,0,0,1,8.632,0,4.428,4.428,0,0,0,5.217,0,8.3,8.3,0,0,1,8.633,0,5.113,5.113,0,0,0,2.608.85h0.714v18.67h-0.714Zm-17.332-44.02a3.6,3.6,0,0,1,2.531,1.04h0a3.508,3.508,0,0,1,1.052,2.5v1.25H107.1v-1.25a2.1,2.1,0,0,0-.633-1.5,2.158,2.158,0,0,0-3.048,0,2.1,2.1,0,0,0-.633,1.5v6.32h10.606v-6.32a3.512,3.512,0,0,1,1.052-2.5h0a3.6,3.6,0,0,1,5.059,0h0a3.509,3.509,0,0,1,1.053,2.5v1.25h-1.428v-1.25a2.106,2.106,0,0,0-.632-1.5,2.16,2.16,0,0,0-3.049,0,2.1,2.1,0,0,0-.633,1.5v19.28a7.181,7.181,0,0,0-1.427.22v-3.85H102.786v3.71a7.33,7.33,0,0,0-1.286-.08l-0.142-.01v-19.27a3.512,3.512,0,0,1,1.052-2.5h0a3.6,3.6,0,0,1,2.529-1.04h0Zm-2.156,11.27v6.5h10.606v-6.5H102.786ZM81.44,2318.9h0.032l0.033-.01h0l0.028-.01H81.57l0.026-.01H81.6l0.032-.01h0l0.027-.01H81.7l0.024-.01h0.008l0.031-.01h0l0.03-.01h0.012l0.02-.01,0.022-.01h0.01l0.031-.01,0.031-.01h0.01l0.021-.01,0.019-.01H81.98l0.029-.01h0l0.03-.01h0.008l0.022-.01,0.018-.01H82.1l0.026-.01h0l0.029-.01,0.006-.01,0.024-.01h0.016l0.014-.01,0.026-.01h0l0.029-.01h0l0.025-.01,0.014-.01,0.016-.01,0.024-.01h0.006l0.029-.01h0l0.027-.02h0.012l0.017-.01,0.022-.01h0.008l0.028-.01v-0.01l0.028-.01h0.011l0.018-.01,0.02-.01,0.01-.01,0.029-.01,0.029-.01,0.009-.01,0.02-.01,0.018-.01h0.01l0.027-.02h0l0.028-.01h0.008l0.021-.01,0.017-.01,0.012-.01,0.026-.01h0l0.029-.02h0l0.023-.01,0.015-.01,0.014-.01,0.024-.01h0l0.028-.02h0l0.024-.01,0.013-.01,0.015-.01,0.023-.01H83.08l0.029-.02h0l0.026-.01,0.012-.01,0.016-.01,0.021-.01,0.008-.01,0.029-.01h0l0.026-.02H83.26l0.018-.01,0.02-.01,0.009-.01,0.029-.01a8.3,8.3,0,0,1,8.632,0,4.428,4.428,0,0,0,5.218,0,8.3,8.3,0,0,1,8.632,0,4.428,4.428,0,0,0,5.217,0,8.3,8.3,0,0,1,8.633,0l0.028,0.01,0.009,0.01,0.02,0.01,0.017,0.01h0.011l0.027,0.02h0l0.028,0.01,0.008,0.01,0.021,0.01,0.016,0.01,0.012,0.01,0.025,0.01h0l0.028,0.02h0.006l0.023,0.01,0.014,0.01,0.013,0.01L120,2318.3h0l0.028,0.02h0l0.024,0.01,0.014,0.01,0.015,0.01,0.022,0.01h0.006l0.028,0.02h0l0.025,0.01,0.012,0.01,0.017,0.01,0.02,0.01h0.007l0.03,0.01h0l0.026,0.02H120.3l0.018,0.01,0.02,0.01,0.008,0.01,0.029,0.01h0l0.029,0.01,0.009,0.01,0.02,0.01,0.018,0.01h0.01l0.027,0.01,0,0.01,0.029,0.01h0.007l0.021,0.01,0.018,0.01h0.012l0.025,0.02h0l0.029,0.01h0.007l0.022,0.01,0.016,0.01,0.013,0.01,0.025,0.01h0l0.03,0.01h0l0.024,0.01,0.015,0.01h0.016l0.023,0.01,0.006,0.01,0.03,0.01h0l0.027,0.01h0.013l0.017,0.01,0.022,0.01h0.008l0.031,0.01h0l0.028,0.01h0.011l0.02,0.01,0.02,0.01h0.01l0.032,0.01h0l0.03,0.01h0.01l0.022,0.01,0.019,0.01h0.012l0.03,0.01h0l0.032,0.01h0.008l0.023,0.01h0.032l0.03,0.01h0l0.033,0.01H121.4l0.024,0.01h0.034l0.027,0.01h0l0.033,0.01h0.033v-7.19a7.059,7.059,0,0,1-2.586-.99,6.437,6.437,0,0,0-3.61-1.03h-0.029a6.434,6.434,0,0,0-3.61,1.03,5.8,5.8,0,0,1-6.6,0,6.434,6.434,0,0,0-3.61-1.03h-0.028a6.436,6.436,0,0,0-3.611,1.03,5.8,5.8,0,0,1-6.6,0,6.435,6.435,0,0,0-3.61-1.03H87.636a6.438,6.438,0,0,0-3.61,1.03,7.06,7.06,0,0,1-2.586.99v7.19h0Zm33.909,8.7h6.211v-7.26l-0.034-.01h-0.014l-0.045-.01h-0.05l-0.007-.01h-0.041l-0.016-.01h-0.03l-0.027-.01h-0.019l-0.037-.01h-0.009l-0.046-.01h0l-0.044-.01h-0.011l-0.034-.01h-0.021l-0.023-.01h-0.03l-0.015-.01-0.039-.01h0l-0.043-.01h0l-0.038-.01-0.014-.01-0.052-.01-0.021-.01-0.031-.01h-0.011l-0.041-.01h0l-0.041-.02h-0.008l-0.034-.01H120.6l-0.025-.01-0.025-.01-0.015-.01-0.035-.01H120.5l-0.041-.02h0l-0.039-.01h-0.011l-0.029-.02h-0.02l-0.019-.01-0.029-.01L120.3,2320l-0.036-.01h0l-0.04-.02h0l-0.034-.02h-0.015l-0.047-.02-0.016-.01-0.031-.01-0.008-.01-0.038-.01h0l-0.038-.02h-0.009l-0.03-.02-0.017-.01-0.02-.01-0.026-.01h-0.013l-0.033-.02h0l-0.037-.02h0l-0.034-.02h-0.012l-0.026-.02-0.02-.01-0.018-.01-0.027-.01-0.01-.01-0.036-.01h0l-0.038-.02-0.007-.01-0.03-.01-0.015-.01-0.023-.01-0.022-.01-0.015-.01-0.03-.02H119.42l-0.038-.02h0l-0.035-.02-0.01-.01-0.028-.01-0.017-.01-0.019-.01-0.026-.02h-0.011l-0.034-.02h0l-0.037-.02h0l-0.032-.02-0.013-.01-0.025-.01-0.02-.01-0.016-.01-0.03-.02h-0.007l-0.038-.02a6.515,6.515,0,0,0-3.61-1.04h-0.029a6.513,6.513,0,0,0-3.61,1.04,5.8,5.8,0,0,1-6.6,0,6.513,6.513,0,0,0-3.61-1.04h-0.028a6.514,6.514,0,0,0-3.611,1.04,5.8,5.8,0,0,1-6.6,0,6.514,6.514,0,0,0-3.61-1.04H87.636a6.517,6.517,0,0,0-3.61,1.04l-0.037.02H83.981l-0.03.02-0.016.01-0.021.01-0.024.01-0.013.01-0.032.02H83.84l-0.037.02h0l-0.033.02H83.754l-0.026.02-0.019.01-0.019.01-0.027.01-0.01.01-0.035.02h0l-0.037.02H83.574l-0.03.02-0.015.01-0.023.01-0.023.01-0.015.01-0.03.01-0.007.01-0.037.02h0l-0.036.01-0.01.01-0.027.01-0.018.01-0.019.01-0.026.02H83.245l-0.034.02h0l-0.037.02h0l-0.034.02H83.118l-0.026.01-0.021.01-0.017.01-0.031.02H83.016l-0.037.02h0l-0.038.01-0.008.01-0.03.01-0.017.01-0.023.01-0.026.01H82.822l-0.033.02H82.782l-0.039.02h0L82.7,2320l-0.012.01-0.028.01-0.021.01H82.623l-0.029.02H82.584l-0.038.01h0l-0.041.02H82.5l-0.034.01-0.016.01-0.026.01-0.025.01H82.379l-0.034.01H82.337l-0.042.02h0l-0.041.01H82.242l-0.031.01-0.021.01-0.023.01H82.138l-0.014.01-0.038.01h0l-0.043.01H82.033l-0.039.01-0.014.01h-0.03l-0.024.01H81.9l-0.034.01H81.86l-0.044.01h0l-0.045.01H81.76l-0.037.01H81.7l-0.028.01H81.647l-0.018.01H81.59l-0.008.01h-0.05l-0.044.01H81.474l-0.034.01v7.26h33.909Z" transform="translate(-80 -2285)"/>
</svg>
