<svg xmlns="http://www.w3.org/2000/svg" width="53.562" height="38.75" viewBox="0 0 53.562 38.75">
  <defs>
    <style>
      .cls-1 {
        fill: #484848;
        fill-rule: evenodd;
      }
    </style>
  </defs>
  <path id="turist.svg" class="cls-1" d="M80.332,2517.7l23.168-29.65,24.062,30.8H79.438l0.894-1.15h0Zm23.168-27.35-21.162,27.08h42.324Zm22.055,28.22-25.449-32.56,1.113-.87,25.449,32.56Zm-45.223-.87,25.448-32.56,1.114,0.87-25.45,32.56Zm15.632,0.13,7.536-15.81,8.019,16.83H95.481l0.483-1.02h0Zm7.536-12.51-5.774,12.11h11.547Zm-26.775,17.13h53.55v1.41H76.725v-1.41Zm26.066-18.78V2489.2h1.418v14.47h-1.418Z" transform="translate(-76.719 -2485.13)"/>
</svg>
